<mxfile host="Electron" modified="2024-04-12T05:38:23.444Z" agent="Mozilla/5.0 (Macintosh; Intel Mac OS X 10_15_7) AppleWebKit/537.36 (KHTML, like Gecko) draw.io/21.6.8 Chrome/114.0.5735.289 Electron/25.5.0 Safari/537.36" etag="cUHP7KpHmLSLF_a-OWIJ" version="21.6.8" type="device">
  <diagram name="Page-1" id="BT38dXrWcvupvGQxmOYR">
    <mxGraphModel dx="4140" dy="2560" grid="1" gridSize="10" guides="1" tooltips="1" connect="1" arrows="1" fold="1" page="1" pageScale="1" pageWidth="3404" pageHeight="2127" math="0" shadow="0">
      <root>
        <mxCell id="0" />
        <mxCell id="1" parent="0" />
        <mxCell id="gW7O54S-1V2lQHz5J_wG-5" style="edgeStyle=orthogonalEdgeStyle;rounded=0;orthogonalLoop=1;jettySize=auto;html=1;" edge="1" parent="1" source="gW7O54S-1V2lQHz5J_wG-1" target="gW7O54S-1V2lQHz5J_wG-2">
          <mxGeometry relative="1" as="geometry" />
        </mxCell>
        <mxCell id="gW7O54S-1V2lQHz5J_wG-9" value="fire" style="edgeLabel;html=1;align=center;verticalAlign=middle;resizable=0;points=[];" vertex="1" connectable="0" parent="gW7O54S-1V2lQHz5J_wG-5">
          <mxGeometry x="-0.1956" y="1" relative="1" as="geometry">
            <mxPoint as="offset" />
          </mxGeometry>
        </mxCell>
        <mxCell id="gW7O54S-1V2lQHz5J_wG-1" value="Server&lt;br style=&quot;font-size: 40px;&quot;&gt;Backend" style="rounded=1;whiteSpace=wrap;html=1;fontSize=40;" vertex="1" parent="1">
          <mxGeometry x="830" y="730" width="350" height="170" as="geometry" />
        </mxCell>
        <mxCell id="gW7O54S-1V2lQHz5J_wG-6" style="edgeStyle=orthogonalEdgeStyle;rounded=0;orthogonalLoop=1;jettySize=auto;html=1;" edge="1" parent="1" source="gW7O54S-1V2lQHz5J_wG-2" target="gW7O54S-1V2lQHz5J_wG-3">
          <mxGeometry relative="1" as="geometry" />
        </mxCell>
        <mxCell id="gW7O54S-1V2lQHz5J_wG-10" value="write" style="edgeLabel;html=1;align=center;verticalAlign=middle;resizable=0;points=[];" vertex="1" connectable="0" parent="gW7O54S-1V2lQHz5J_wG-6">
          <mxGeometry x="0.0035" y="1" relative="1" as="geometry">
            <mxPoint as="offset" />
          </mxGeometry>
        </mxCell>
        <mxCell id="gW7O54S-1V2lQHz5J_wG-2" value="Kafka" style="rounded=1;whiteSpace=wrap;html=1;fontSize=40;" vertex="1" parent="1">
          <mxGeometry x="1330" y="730" width="350" height="170" as="geometry" />
        </mxCell>
        <mxCell id="gW7O54S-1V2lQHz5J_wG-7" style="rounded=0;orthogonalLoop=1;jettySize=auto;html=1;" edge="1" parent="1" source="gW7O54S-1V2lQHz5J_wG-3" target="gW7O54S-1V2lQHz5J_wG-4">
          <mxGeometry relative="1" as="geometry" />
        </mxCell>
        <mxCell id="gW7O54S-1V2lQHz5J_wG-11" value="write" style="edgeLabel;html=1;align=center;verticalAlign=middle;resizable=0;points=[];" vertex="1" connectable="0" parent="gW7O54S-1V2lQHz5J_wG-7">
          <mxGeometry x="-0.0379" y="-2" relative="1" as="geometry">
            <mxPoint y="1" as="offset" />
          </mxGeometry>
        </mxCell>
        <mxCell id="gW7O54S-1V2lQHz5J_wG-3" value="Hadoop" style="rounded=1;whiteSpace=wrap;html=1;fontSize=40;verticalAlign=top;align=left;" vertex="1" parent="1">
          <mxGeometry x="1900" y="730" width="1340" height="590" as="geometry" />
        </mxCell>
        <mxCell id="gW7O54S-1V2lQHz5J_wG-4" value="HDFS" style="rounded=1;whiteSpace=wrap;html=1;fontSize=40;" vertex="1" parent="1">
          <mxGeometry x="2160" y="1120" width="390" height="110" as="geometry" />
        </mxCell>
        <mxCell id="gW7O54S-1V2lQHz5J_wG-8" value="Spark" style="rounded=1;whiteSpace=wrap;html=1;fontSize=40;" vertex="1" parent="1">
          <mxGeometry x="2930" y="450" width="350" height="170" as="geometry" />
        </mxCell>
        <mxCell id="gW7O54S-1V2lQHz5J_wG-13" value="" style="endArrow=classic;html=1;rounded=0;exitX=0.022;exitY=0.967;exitDx=0;exitDy=0;exitPerimeter=0;entryX=0.987;entryY=0.034;entryDx=0;entryDy=0;entryPerimeter=0;" edge="1" parent="1" source="gW7O54S-1V2lQHz5J_wG-8" target="gW7O54S-1V2lQHz5J_wG-4">
          <mxGeometry width="50" height="50" relative="1" as="geometry">
            <mxPoint x="2590" y="890" as="sourcePoint" />
            <mxPoint x="2640" y="840" as="targetPoint" />
          </mxGeometry>
        </mxCell>
        <mxCell id="gW7O54S-1V2lQHz5J_wG-14" value="read" style="edgeLabel;html=1;align=center;verticalAlign=middle;resizable=0;points=[];" vertex="1" connectable="0" parent="gW7O54S-1V2lQHz5J_wG-13">
          <mxGeometry x="0.0211" y="2" relative="1" as="geometry">
            <mxPoint as="offset" />
          </mxGeometry>
        </mxCell>
        <mxCell id="gW7O54S-1V2lQHz5J_wG-16" value="Kylin" style="rounded=1;whiteSpace=wrap;html=1;fontSize=40;" vertex="1" parent="1">
          <mxGeometry x="2450" y="450" width="350" height="170" as="geometry" />
        </mxCell>
        <mxCell id="gW7O54S-1V2lQHz5J_wG-17" value="Hive" style="rounded=1;whiteSpace=wrap;html=1;fontSize=40;" vertex="1" parent="1">
          <mxGeometry x="1900" y="440" width="350" height="170" as="geometry" />
        </mxCell>
        <mxCell id="gW7O54S-1V2lQHz5J_wG-21" value="MapReduce" style="rounded=1;whiteSpace=wrap;html=1;fontSize=40;" vertex="1" parent="1">
          <mxGeometry x="2160" y="870" width="400" height="150" as="geometry" />
        </mxCell>
        <mxCell id="gW7O54S-1V2lQHz5J_wG-22" value="Trino&lt;br&gt;PrestoSQL" style="rounded=1;whiteSpace=wrap;html=1;fontSize=40;" vertex="1" parent="1">
          <mxGeometry x="2260" y="60" width="350" height="170" as="geometry" />
        </mxCell>
        <mxCell id="gW7O54S-1V2lQHz5J_wG-24" value="" style="endArrow=classic;html=1;rounded=0;entryX=0;entryY=0;entryDx=0;entryDy=0;" edge="1" parent="1" source="gW7O54S-1V2lQHz5J_wG-17" target="gW7O54S-1V2lQHz5J_wG-4">
          <mxGeometry width="50" height="50" relative="1" as="geometry">
            <mxPoint x="1770" y="720" as="sourcePoint" />
            <mxPoint x="1820" y="670" as="targetPoint" />
          </mxGeometry>
        </mxCell>
        <mxCell id="gW7O54S-1V2lQHz5J_wG-25" value="read" style="edgeLabel;html=1;align=center;verticalAlign=middle;resizable=0;points=[];" vertex="1" connectable="0" parent="gW7O54S-1V2lQHz5J_wG-24">
          <mxGeometry x="-0.1854" y="-5" relative="1" as="geometry">
            <mxPoint as="offset" />
          </mxGeometry>
        </mxCell>
        <mxCell id="gW7O54S-1V2lQHz5J_wG-26" value="" style="endArrow=classic;html=1;rounded=0;exitX=0.5;exitY=1;exitDx=0;exitDy=0;entryX=0.75;entryY=0;entryDx=0;entryDy=0;" edge="1" parent="1" source="gW7O54S-1V2lQHz5J_wG-16" target="gW7O54S-1V2lQHz5J_wG-21">
          <mxGeometry width="50" height="50" relative="1" as="geometry">
            <mxPoint x="2948" y="624" as="sourcePoint" />
            <mxPoint x="2555" y="1134" as="targetPoint" />
          </mxGeometry>
        </mxCell>
        <mxCell id="gW7O54S-1V2lQHz5J_wG-27" value="read" style="edgeLabel;html=1;align=center;verticalAlign=middle;resizable=0;points=[];" vertex="1" connectable="0" parent="gW7O54S-1V2lQHz5J_wG-26">
          <mxGeometry x="0.0211" y="2" relative="1" as="geometry">
            <mxPoint as="offset" />
          </mxGeometry>
        </mxCell>
        <mxCell id="gW7O54S-1V2lQHz5J_wG-28" value="" style="endArrow=classic;html=1;rounded=0;exitX=0.75;exitY=1;exitDx=0;exitDy=0;entryX=0.977;entryY=0.038;entryDx=0;entryDy=0;entryPerimeter=0;" edge="1" parent="1" source="gW7O54S-1V2lQHz5J_wG-16" target="gW7O54S-1V2lQHz5J_wG-4">
          <mxGeometry width="50" height="50" relative="1" as="geometry">
            <mxPoint x="2948" y="624" as="sourcePoint" />
            <mxPoint x="2555" y="1134" as="targetPoint" />
          </mxGeometry>
        </mxCell>
        <mxCell id="gW7O54S-1V2lQHz5J_wG-29" value="read" style="edgeLabel;html=1;align=center;verticalAlign=middle;resizable=0;points=[];" vertex="1" connectable="0" parent="gW7O54S-1V2lQHz5J_wG-28">
          <mxGeometry x="0.0211" y="2" relative="1" as="geometry">
            <mxPoint as="offset" />
          </mxGeometry>
        </mxCell>
        <mxCell id="gW7O54S-1V2lQHz5J_wG-30" value="" style="endArrow=classic;html=1;rounded=0;entryX=0.5;entryY=0;entryDx=0;entryDy=0;" edge="1" parent="1" source="gW7O54S-1V2lQHz5J_wG-22" target="gW7O54S-1V2lQHz5J_wG-17">
          <mxGeometry width="50" height="50" relative="1" as="geometry">
            <mxPoint x="2097" y="620" as="sourcePoint" />
            <mxPoint x="2170" y="1130" as="targetPoint" />
          </mxGeometry>
        </mxCell>
        <mxCell id="gW7O54S-1V2lQHz5J_wG-31" value="read" style="edgeLabel;html=1;align=center;verticalAlign=middle;resizable=0;points=[];" vertex="1" connectable="0" parent="gW7O54S-1V2lQHz5J_wG-30">
          <mxGeometry x="-0.1854" y="-5" relative="1" as="geometry">
            <mxPoint as="offset" />
          </mxGeometry>
        </mxCell>
      </root>
    </mxGraphModel>
  </diagram>
</mxfile>
